<?xml version="1.0" encoding="UTF-8" standalone="no"?>
<svg
   xmlns:dc="http://purl.org/dc/elements/1.1/"
   xmlns:cc="http://creativecommons.org/ns#"
   xmlns:rdf="http://www.w3.org/1999/02/22-rdf-syntax-ns#"
   xmlns:svg="http://www.w3.org/2000/svg"
   xmlns="http://www.w3.org/2000/svg"
   height="388"
   width="374"
   id="svg12"
   xml:space="preserve"
   enable-background="new 0 0 512 512"
   viewBox="0 0 374 388"
   y="0px"
   x="0px"
   version="1.1"><metadata
     id="metadata18"><rdf:RDF><cc:Work
         rdf:about=""><dc:format>image/svg+xml</dc:format><dc:type
           rdf:resource="http://purl.org/dc/dcmitype/StillImage" /><dc:title></dc:title></cc:Work></rdf:RDF></metadata><defs
     id="defs16" /><g
     transform="translate(-62.372881,-70.305084)"
     id="g6"><path
       id="path2"
       d="M 378.5,370.9 331.8,402 231.3,340.9 286.5,285.7 c 4.3,-4.3 6.2,-10.3 5.2,-16.2 -1,-5.9 -4.7,-11.1 -10.1,-13.7 l -95.2,-47.3 c 3.7,-7.9 9.9,-17.7 19.4,-25.2 l 97,70.9 c 1.2,4.9 2.6,9.7 4.6,14.6 11.9,28.3 36.8,48.6 74,60.5 9.8,3.2 20.3,-2.3 23.5,-12.1 3.1,-9.8 -2.3,-20.4 -12.1,-23.5 -26.3,-8.4 -43.4,-21.6 -50.9,-39.2 -12.5,-29.4 4,-63.9 4.2,-64.2 4.4,-8.8 1.2,-19.6 -7.3,-24.5 C 288,136.4 239.85424,135.93559 204.75424,147.93559 L 114.0322,79.779661 C 105.7322,73.679661 98.1,68.7 92,77.1 c -6.1,8.3 -4.3,20 4.1,26.1 l 78.9,57.6 c -23.1,22.6 -29.6,51.7 -30,53.3 -1.8,8.4 2.3,16.8 10,20.6 l 86.7,43.1 -43.3,43.3 -101.5,-62 c -8.8,-5.4 -20.3,-2.6 -25.7,6.3 -5.4,8.8 -2.6,20.3 6.3,25.7 l 245.1,149 c 3,1.8 6.4,2.7 9.7,2.7 3.6,0 7.2,-3.0339 10.4,-5.1339 L 399.3,402 c 8.6,-5.7 10.9,-17.3 5.2,-25.9 -5.8,-8.6 -17.5,-11 -26,-5.2 z M 306.3,190.4 c -1.5,4.8 -4.35593,17.37966 -5.45593,23.57966 L 250.8322,180.05763 c 15.3,2.3 36.5678,0.64237 55.4678,10.34237 z" /><path
       style="stroke-width:0.83641571"
       id="path4"
       d="m 382.47119,149.87458 c -17.23017,0 -31.19831,13.96814 -31.19831,31.19831 0,17.23016 13.96814,31.1983 31.19831,31.1983 17.23016,0 31.1983,-13.96814 31.1983,-31.1983 0,-17.23017 -13.96814,-31.19831 -31.1983,-31.19831 z" /></g></svg>