<?xml version="1.0" encoding="UTF-8" standalone="no"?>
<svg
   xmlns:dc="http://purl.org/dc/elements/1.1/"
   xmlns:cc="http://creativecommons.org/ns#"
   xmlns:rdf="http://www.w3.org/1999/02/22-rdf-syntax-ns#"
   xmlns:svg="http://www.w3.org/2000/svg"
   xmlns="http://www.w3.org/2000/svg"
   height="371"
   width="389"
   id="svg12"
   xml:space="preserve"
   enable-background="new 0 0 512 512"
   viewBox="0 0 389 371"
   y="0px"
   x="0px"
   version="1.1"><metadata
     id="metadata18"><rdf:RDF><cc:Work
         rdf:about=""><dc:format>image/svg+xml</dc:format><dc:type
           rdf:resource="http://purl.org/dc/dcmitype/StillImage" /><dc:title></dc:title></cc:Work></rdf:RDF></metadata><defs
     id="defs16" /><g
     transform="translate(-61.362487,-76.28344)"
     id="g6"><circle
       id="circle2"
       r="37.200001"
       cy="119.22305"
       cx="224.53575" /><path
       id="path4"
       d="m 432.6,332.7 c -9.4,-4.3 -20.5,-0.2 -24.9,9.2 l -14.6,31.6 -18.3,3.1 -47.9,-74.5 c -3.4,-5.4 -9.41824,-9.08281 -15.8,-8.6 l -35.64365,2.6966 c 3.44045,6.28053 4.64121,8.22779 4.9,15.90795 0,0 -0.28677,10.73707 -1.16028,17.21757 C 283.89551,329.75027 300.9,331 300.9,331 l 33.6,52.3 -67.3,11.2 7.5,-80.5 c 0.5,-5.3 -1.3,-10.5 -4.8,-14.4 -3.6,-3.9 -8.6,-6.1 -13.9,-6.1 h -23.2 c -4.3,-19.9 -8.5,-60 14.3,-93.7 h 102.7 c 10.4,0 18.7,-8.4 18.7,-18.7 0,-10.4 -8.4,-18.7 -18.7,-18.7 H 237.3 199.8 c -4.1,0 -101.2,1 -130.3,87.8 -3.3,9.8 2,20.4 11.8,23.7 2,0.7 4,1 6,1 7.8,0 15.1,-4.9 17.8,-12.8 11,-32.9 36.8,-48.3 58.8,-55.6 -20.7,54.7 -1.4,109.5 -0.4,112.3 2.7,7.4 9.7,12.4 17.6,12.4 h 37.1 0.9 16.5 l -6.5,69.9 -26.2,4.4 -32,-16 c -9.3,-4.6 -20.5,-0.9 -25.2,8.4 -4.6,9.3 -0.9,20.5 8.4,25.2 l 37.5,18.7 c 2.6,1.3 5.5,2 8.4,2 1,0 2.1,-0.1 3.1,-0.3 l 206.2,-34.4 c 6.1,-1 11.4,-5 14,-10.6 L 442,357.9 c 4.1,-9.7 0,-20.8 -9.4,-25.2 z" /></g></svg>